<svg xmlns="http://www.w3.org/2000/svg" viewBox="0 0 800 351.04"><defs><style>.cls-1{fill:#2d2421;}</style></defs><title>logo</title><g id="レイヤー_2" data-name="レイヤー 2"><g id="レイヤー_1-2" data-name="レイヤー 1"><path class="cls-1" d="M81.54,285.36q-26.55-8.78-43-29.48T17.94,205.3q-5.82-41.46,5.31-75.81T58.7,73.75a107,107,0,0,1,57-26q30.45-4.27,48.44,9.15T185.77,96q2.43,17.2-2.18,28.49t-15.87,12.87q-7.91,1.11-12.93-1.92t-6-10.08a70.45,70.45,0,0,1-.17-9.47,73.39,73.39,0,0,0-.22-13.77q-3.6-25.66-31-21.82-18.6,2.61-33.83,17.12T61.25,137q-7.12,25-2.56,57.44,4.76,33.84,26.24,49.66t58.44,10.62a154.71,154.71,0,0,0,36.43-9.86,290.72,290.72,0,0,0,39.59-20.09A20,20,0,0,1,226.2,222a7.7,7.7,0,0,1,7.25,2.43,15.66,15.66,0,0,1,3.48,8.43q2.43,17.21-15,28a195.1,195.1,0,0,1-39.8,18.68,224,224,0,0,1-40.45,9.86Q108.07,294.14,81.54,285.36Z"/><path class="cls-1" d="M225.86,264.65q-12.21-11.22-15.11-31.81a92.59,92.59,0,0,1,4.43-44.19,90.07,90.07,0,0,1,23.22-36.34q15.61-14.7,35.08-17.44,6.19-.87,8.66,1.23t4.73,8.11a66.64,66.64,0,0,1,12.25-2.88q13.81-1.94,15.21,7.93.82,5.93-.27,28.8-1.94,33.34-.15,46a10.33,10.33,0,0,0,3.07,6.47,6.9,6.9,0,0,0,5.86,1.77c3.57-.51,7.57-3.41,12-8.74s10.24-13.75,17.43-25.31q2.84-4.42,7.06-5a6.61,6.61,0,0,1,6.26,2.57q2.6,3.09,3.42,9,1.59,11.29-2.9,18.24A143.05,143.05,0,0,1,345,250.78q-11.58,11.7-23.71,13.4a26.56,26.56,0,0,1-17.95-3.95q-8.65-5.25-14.14-15.7-11.34,25.75-33.61,28.88Q238.08,275.87,225.86,264.65Zm46.67-30.14q4.61-8.13,5.44-20.61l3.14-53.36q-11.81,2-20.6,12t-12.75,24.94A77.27,77.27,0,0,0,246,228.16q1.23,8.75,5.35,12.48a12.08,12.08,0,0,0,10.33,2.86Q267.92,242.63,272.53,234.51Z"/><path class="cls-1" d="M476.41,180.26q2.59,3.09,3.43,9,1.57,11.28-2.9,18.24a121.31,121.31,0,0,1-23.06,28.26q-13,11.61-31.65,14.22-57.53,8.08-68.91-72.85-1.74-12.4-2.68-25.22l-11,1.55q-8.46,1.18-11.85-1.5t-4.35-9.45q-2.22-15.8,10.47-17.58L350,122.68a276.82,276.82,0,0,1,6.7-58.74q6.27-27,18.09-44.24T402.66.25q11.83-1.66,20.08,7.82t10.45,25.27q6.15,43.72-26,81.3l31.59-4.44c3-.42,5.26-.07,6.76,1.06s2.5,3.49,3,7q2.75,19.47-29.13,23.94l-34.4,4.84q1.41,14.17,2.53,22.07,4.11,29.34,12.69,40.21t23.52,8.77a34,34,0,0,0,20.4-10.35q8.28-8.64,18.91-25.08,2.82-4.43,7.06-5A6.57,6.57,0,0,1,476.41,180.26Zm-85.52-140Q387.16,51.6,385.14,71a398.94,398.94,0,0,0-1.91,42.69Q397.84,97,403.65,77.9t3.74-33.74Q405,27.53,398.85,28.39,394.62,29,390.89,40.29Z"/><path class="cls-1" d="M601.86,138.76a19.72,19.72,0,0,1,3.28,9q1.9,13.53-5.92,17.22A129.23,129.23,0,0,1,563,177q-2,24.45-15.82,40.91t-33.82,19.27q-16.92,2.38-30-4.12A52.34,52.34,0,0,1,462,213.92a70.19,70.19,0,0,1-10.33-28.46q-3-21.44,2.81-39.36a64.94,64.94,0,0,1,18.87-29.4,57.45,57.45,0,0,1,30.54-13.93q21.44-3,36.63,10T561,147.08q13.14-2.7,30.79-10.07a16.17,16.17,0,0,1,3.87-1.12C598.14,135.54,600.2,136.5,601.86,138.76ZM526,197.45q5.6-8.26,5.91-22.4a39.3,39.3,0,0,1-15.57-13.63,46.26,46.26,0,0,1-7.51-19.65,48.76,48.76,0,0,1-.42-9.14l-1.41.2q-11.3,1.57-17.23,13.49T486.58,178q2.19,15.51,9.4,22.83T511.37,207Q520.39,205.71,526,197.45Z"/><path class="cls-1" d="M680.72,79.94c1.85.89,3,2.65,3.34,5.28q.95,6.77-.56,49.26-.9,40.67-1,48.16-.24,73.94-12.63,118.82T627,350.62q-14.38,2-24.66-5.59t-12.29-22a67.75,67.75,0,0,1,2.26-27.93q4.11-14.67,18.1-34.89t40.9-47.59l-.06-6.61q.5-10.71.31-30.53-2.79,21.11-11.45,33.1t-19.95,13.59q-12.69,1.79-22.37-8.79t-12.14-28.06a248.72,248.72,0,0,1-2.63-39.17,246.62,246.62,0,0,1,4.05-38.68q1.64-8.85,6.2-13.23t15.56-5.93q6.2-.87,8.87.77c1.79,1.09,2.86,3,3.23,5.58.22,1.51-.11,6.73-1,15.67q-1.35,10.83-1.86,19.53-.63,11.88-.83,22.69a115.55,115.55,0,0,0,.74,17.58q1.51,10.73,7.43,9.89,4.23-.6,9.39-10t9.93-27.57a346.48,346.48,0,0,0,8-44.26q1.07-8.77,5.21-13.1t13.44-5.63Q677.94,78.61,680.72,79.94ZM639.78,304.25q6.44-17.58,9.83-56.88-19.14,21.38-26.74,37.83t-6,27.74a15.48,15.48,0,0,0,2.95,7.64q2.26,2.84,6.5,2.25Q633.33,321.84,639.78,304.25Z"/><path class="cls-1" d="M669.62,233c38.56-34.89,102-56.25,105.47-116.72.95-16.4-24.47-19.79-25.42-3.31-2.94,50.75-63.52,70.58-95.94,99.91-12.16,11,3.62,31.23,15.89,20.12Z"/><path class="cls-1" d="M90.65,181.11c12.71-1.78,9.95-21.53-2.77-19.74s-9.95,21.53,2.77,19.74Z"/><path class="cls-1" d="M136.3,162.82c12.7-1.78,9.95-21.53-2.77-19.74s-10,21.53,2.77,19.74Z"/><path class="cls-1" d="M99.93,44.48a127.76,127.76,0,0,1,9.66-28.59l-4.87.68,17.61,23.37c2.21,2.92,6.68-.6,4.47-3.54L109.19,13a2.88,2.88,0,0,0-4.87.68,134.84,134.84,0,0,0-10,30c-.76,3.59,4.9,4.3,5.65.74Z"/><path class="cls-1" d="M28,86,3.14,80.28c-2.31-.53-3.61,2.11-3,4A152.36,152.36,0,0,0,14.6,114.92c1.9,3.12,6.36-.44,4.47-3.53A146.79,146.79,0,0,1,5.38,82l-3,4,24.9,5.75c3.58.83,4.28-4.83.74-5.65Z"/><path class="cls-1" d="M733.51,64.16l2.34,22.43c.38,3.65,6,2.85,5.64-.8l-2.34-22.43c-.38-3.65-6-2.85-5.64.8Z"/><path class="cls-1" d="M767.64,58,761.4,78.39c-1.07,3.48,4.19,5.67,5.27,2.16l6.24-20.36c1.07-3.49-4.2-5.67-5.27-2.17Z"/><path class="cls-1" d="M795.59,70.6,782.88,83.54c-2.54,2.58,1,7.09,3.53,4.47l12.71-12.94c2.53-2.58-1-7.09-3.53-4.47Z"/><path class="cls-1" d="M101,191.37c-2.7,8.83,3.16,19.44,13.2,19.2,10.33-.24,15.42-12.28,11.38-20.78l-4.85,2.9c7.42,7.88,20,11.79,28.23,2.56,6.49-7.29,3.39-18.23-5.53-21.61-3.43-1.3-5.6,4-2.17,5.27,7.18,2.72,5.51,13.25-.81,15.46-5.7,2-11.42-1.14-15.25-5.21-2.08-2.22-6.32-.21-4.85,2.89,2.31,4.87,0,13.6-7.43,12.8-5.06-.53-8-6.94-6.65-11.32,1.07-3.49-4.2-5.67-5.27-2.16Z"/></g></g></svg>